<svg width="100" height="100" viewBox="0 0 100 100" fill="none" xmlns="http://www.w3.org/2000/svg">
<path d="M18.6404 50.6958C16.7175 50.6958 15.1531 52.2602 15.1531 54.1831V66.1809H33.8617C33.9212 66.1809 33.9679 66.2284 33.9681 66.2887L33.9718 67.7745H40.1384V66.285C40.1384 61.561 41.2388 57.0483 43.4091 52.8717L44.5398 50.6956H18.6404V50.6958Z" fill="#7AB6DE"/>
<path d="M21.5635 66.2874C19.9364 66.2874 18.6047 67.5413 18.6047 69.0735V78.4583H43.0973V66.2874H21.5635Z" fill="#4693BD"/>
<path d="M69.3235 45.4021C80.7277 45.4021 90.1766 58.1916 91.6149 69.2107C90.1766 80.2298 80.7276 88.766 69.3235 88.766C57.9213 88.766 48.4725 80.2298 47.034 69.2107C48.4723 58.1914 57.9213 45.4021 69.3235 45.4021Z" fill="#ADD9FF"/>
<path d="M91.8043 66.2851C91.8043 67.2765 91.7404 68.2533 91.6149 69.2107C90.1766 58.1916 80.7276 49.6576 69.3235 49.6576C57.9213 49.6576 48.4725 58.1916 47.034 69.2107C46.9084 68.2533 46.8445 67.2767 46.8445 66.2851C46.8445 53.8894 56.9297 43.8064 69.3233 43.8064C81.7192 43.8064 91.8043 53.8894 91.8043 66.2851Z" fill="#94C8EF"/>
<path d="M18.6042 96.3978C23.5619 96.3978 27.5808 92.3789 27.5808 87.4213C27.5808 82.4636 23.5619 78.4447 18.6042 78.4447C13.6466 78.4447 9.62769 82.4636 9.62769 87.4213C9.62769 92.3789 13.6466 96.3978 18.6042 96.3978Z" fill="#7AB6DE"/>
<path d="M18.6047 90.6127C16.845 90.6127 15.4133 89.181 15.4133 87.4213C15.4133 85.6615 16.845 84.2299 18.6047 84.2299C20.3645 84.2299 21.7961 85.6615 21.7961 87.4213C21.7961 89.181 20.3647 90.6127 18.6047 90.6127Z" fill="#4693BD"/>
<path d="M91.3701 47.5056C86.9533 42.3287 80.8527 38.8547 74.1941 37.7234C72.6037 37.451 70.965 37.3129 69.3232 37.3129C53.3476 37.3129 40.351 50.3107 40.351 66.2873C40.351 82.2638 53.3478 95.2617 69.3232 95.2617C85.2998 95.2617 98.2976 82.2638 98.2976 66.2873C98.2978 59.4123 95.8375 52.7422 91.3701 47.5056ZM85.417 82.115L85.3404 82.1959L85.2906 82.2615C85.2851 82.266 85.2111 82.3244 85.2111 82.3244L85.1535 82.381C80.8988 86.567 75.2769 88.8724 69.3238 88.8724C63.3711 88.8724 57.75 86.5664 53.4959 82.3791L53.4283 82.3123C53.4283 82.3123 53.3519 82.2543 53.3515 82.2541C53.3474 82.249 53.2894 82.1756 53.2894 82.1756L53.2326 82.1177C49.0449 77.8592 46.7388 72.2373 46.7388 66.2875C46.7388 60.3355 49.0451 54.7136 53.2324 50.4574L53.2894 50.3996L53.3533 50.3174L53.4287 50.2601L53.4961 50.1937C57.751 46.0078 63.3722 43.7023 69.3242 43.7023C75.2773 43.7023 80.899 46.0076 85.1539 50.1937L85.2111 50.25C85.2111 50.25 85.2879 50.3105 85.2949 50.3166C85.3011 50.3238 85.3619 50.4008 85.3619 50.4008L85.4174 50.4572C89.6051 54.7158 91.9111 60.3377 91.9111 66.2875C91.9105 72.2377 89.6047 77.8588 85.417 82.115Z" fill="#FFDD77"/>
<path d="M69.3234 57.417C64.4336 57.417 60.4551 61.3961 60.4551 66.2871C60.4551 71.1781 64.4334 75.1572 69.3234 75.1572C74.2143 75.1572 78.1934 71.1781 78.1934 66.2871C78.1936 61.3961 74.2145 57.417 69.3234 57.417Z" fill="#7AB6DE"/>
<path d="M75.3224 31.333L80.1486 3.70862H76.568C74.7965 3.70862 73.1082 5.12795 72.8053 6.87131L68.6721 30.5276L68.6678 30.6211C68.6674 30.6315 68.6654 30.6412 68.6627 30.6514L68.6361 30.7389L67.5238 37.1024H69.2961C69.3207 37.1024 69.3467 37.1018 69.3736 37.1004C71.0006 37.1031 72.6342 37.2422 74.2291 37.5131L75.6943 37.7623L76.7213 31.7973L75.3961 31.4526C75.3527 31.441 75.3123 31.3912 75.3224 31.333Z" fill="#4693BD"/>
<path d="M74.4787 36.0447C88.949 38.5021 100 51.1296 100 66.2873C100 83.2021 86.2383 96.9638 69.3235 96.9638C52.4108 96.9638 38.649 83.2021 38.649 66.2873V66.2851H40.7086L41.8405 66.2873C41.8405 81.4425 54.1703 93.7724 69.3235 93.7724C84.4787 93.7724 96.8086 81.4425 96.8086 66.2873C96.8086 52.7064 86.9065 41.3937 73.9426 39.1916L74.149 37.9724L74.4787 36.0447Z" fill="#1D2328"/>
<path d="M75.0213 32.8935C74.2277 32.6871 73.7127 31.9 73.8553 31.0765L78.3766 5.19783H76.568C75.5254 5.19783 74.451 6.09998 74.2723 7.12771L70.1553 30.6914C70.1488 30.8275 70.1254 30.9595 70.0871 31.0849L69.2957 35.6127C69.3043 35.6127 69.3148 35.6105 69.3234 35.6105C71.0809 35.6105 72.8021 35.7595 74.4787 36.0445L74.149 37.9722L73.9426 39.1914C72.4404 38.934 70.8979 38.8019 69.3234 38.8019C54.1703 38.8019 41.8404 51.1318 41.8404 66.2871L40.7086 66.2849H38.649C38.649 61.2041 39.8916 56.4105 42.0873 52.1849H18.6404C17.5404 52.1849 16.6426 53.0806 16.6426 54.1828V64.6914H33.8617C34.7426 64.6914 35.4553 65.4041 35.4574 66.2849V66.2871C35.4574 67.1679 34.7426 67.8828 33.8617 67.8828H20.2361V76.9806C25.283 77.7763 29.1531 82.1551 29.1531 87.4211C29.1531 93.251 24.4105 97.9933 18.5809 97.9933C13.2936 97.9933 8.90215 94.0912 8.12988 89.0168H1.5957C0.714844 89.0168 0 88.3019 0 87.4211C0 86.5402 0.714844 85.8254 1.5957 85.8254H8.12969C8.82539 81.251 12.4637 77.6318 17.0445 76.9615V67.8828H15.0469C14.166 67.8828 13.4512 67.1679 13.4512 66.2871V54.1828C13.4512 51.3211 15.7789 48.9933 18.6406 48.9933H44.0023C48.9449 41.7763 56.8918 36.7699 66.0258 35.789L66.6514 32.2017H21.9404C21.0021 32.2017 20.2361 32.9656 20.2361 33.906V44.206C20.2361 45.0869 19.5213 45.8017 18.6404 45.8017C17.7596 45.8017 17.0447 45.0869 17.0447 44.206V33.906C17.0447 31.206 19.2426 29.0103 21.9404 29.0103H67.2086L71.1277 6.57849C71.5768 4.01462 73.966 2.00623 76.5682 2.00623H90.3256C91.2064 2.00623 91.9213 2.72107 91.9213 3.60193C91.9213 4.48279 91.2064 5.19763 90.3256 5.19763H81.617L77 31.6254C76.8639 32.4019 76.1914 32.9467 75.4299 32.9467C75.3385 32.9467 75.2469 32.9402 75.1533 32.9232C75.1086 32.9148 75.0639 32.9064 75.0213 32.8935ZM25.9617 87.4213C25.9617 83.351 22.6512 80.0404 18.5809 80.0404C14.5127 80.0404 11.2 83.351 11.2 87.4213C11.2 91.4916 14.5127 94.8021 18.5809 94.8021C22.651 94.8021 25.9617 91.4914 25.9617 87.4213Z" fill="#1D2328"/>
<path d="M86.4787 49.4127C90.7553 53.7617 93.4 59.7213 93.4 66.2871C93.4 72.853 90.7553 78.8127 86.4787 83.1594C86.4383 83.2125 86.3957 83.2637 86.349 83.3104C86.3 83.3594 86.249 83.4018 86.198 83.4422C81.8512 87.7188 75.8916 90.3614 69.3236 90.3614C62.7576 90.3614 56.798 87.7188 52.4514 83.4401C52.3982 83.3996 52.3492 83.3571 52.3004 83.3104C52.2535 83.2635 52.2109 83.2125 52.1705 83.1614C47.8939 78.8123 45.2492 72.8528 45.2492 66.2869C45.2492 59.7211 47.8918 53.7614 52.1705 49.4125C52.2109 49.3615 52.2535 49.3104 52.3004 49.2635C52.3494 49.2145 52.3982 49.1721 52.4514 49.1317C56.7982 44.8551 62.7578 42.2125 69.3236 42.2125C75.8918 42.2125 81.8514 44.8551 86.198 49.1317C86.249 49.1721 86.3002 49.2147 86.349 49.2635C86.3957 49.3106 86.4383 49.3617 86.4787 49.4127ZM90.2086 66.2873C90.2086 61.1022 88.3086 56.3533 85.1703 52.6979L77.8385 60.0297C79.1299 61.7828 79.8959 63.9467 79.8959 66.2871C79.8959 68.6276 79.1299 70.7914 77.8385 72.5446L85.1703 79.8744C88.3086 76.2213 90.2086 71.4723 90.2086 66.2873ZM75.5808 57.7723L82.9127 50.4424C79.2574 47.302 74.5084 45.4041 69.3232 45.4041C64.1402 45.4041 59.3914 47.302 55.7359 50.4424L63.0658 57.7723C64.8189 56.4809 66.9849 55.7149 69.3232 55.7149C71.6639 55.7149 73.8277 56.4809 75.5808 57.7723ZM82.9127 82.1319L75.5808 74.802C73.8277 76.0934 71.6639 76.8594 69.3234 76.8594C66.9851 76.8594 64.8191 76.0934 63.066 74.802L55.7361 82.1319C59.3914 85.2701 64.1404 87.1701 69.3234 87.1701C74.5086 87.1701 79.2574 85.2701 82.9127 82.1319ZM76.7043 66.2873C76.7043 62.217 73.3937 58.9065 69.3234 58.9065C65.2553 58.9065 61.9447 62.217 61.9447 66.2873C61.9447 70.3574 65.2553 73.6682 69.3234 73.6682C73.3935 73.6682 76.7043 70.3574 76.7043 66.2873ZM60.8105 60.0299L53.4787 52.6981C50.3404 56.3533 48.4404 61.1024 48.4404 66.2875C48.4404 71.4727 50.3404 76.2215 53.4787 79.8748L60.8105 72.5449C59.517 70.7918 58.7531 68.628 58.7531 66.2875C58.7531 63.9469 59.517 61.783 60.8105 60.0299Z" fill="#1D2328"/>
</svg>
